<?xml version="1.0" encoding="UTF-8"?>
<svg version="1.1" xmlns="http://www.w3.org/2000/svg" width="20" height="20">
<path d="M0 0 C6.6 0 13.2 0 20 0 C20 6.6 20 13.2 20 20 C13.4 20 6.8 20 0 20 C0 13.4 0 6.8 0 0 Z " fill="#FEFEFE" transform="translate(0,0)"/>
<path d="M0 0 C1.98 1.65 3.96 3.3 6 5 C4.60667426 8.36720387 3.0210714 9.9859524 0 12 C0.66 10.68 1.32 9.36 2 8 C-1.3 7.67 -4.6 7.34 -8 7 C-8 6.34 -8 5.68 -8 5 C-4.7 4.67 -1.4 4.34 2 4 C1.34 2.68 0.68 1.36 0 0 Z " fill="#DC726E" transform="translate(11,4)"/>
</svg>
